<?xml version="1.0" encoding="utf-8"?>
<svg version="1.1" xmlns="http://www.w3.org/2000/svg" xmlns:xlink="http://www.w3.org/1999/xlink" x="0px" y="0px" viewBox="0 0 1024 1024" enable-background="new 0 0 1024 1024" xml:space="preserve">
<g transform="translate(0 128)">
<path fill="#f4c031" d="m561.32 315.8c-5.87 0-10.56 1.68-14.09 4.87-3.69 3.36-5.36 7.38-5.36 12.08 0 4.87 1.67 8.89 5.36 12.08 3.53 3.35 8.22 4.86 14.09 4.86 5.71 0 10.41-1.51 14.1-4.86 3.52-3.36 5.37-7.55 5.37-12.58 0-4.7-1.85-8.73-5.37-11.75-3.69-3.02-8.39-4.7-14.1-4.7zm-319.15 1.9c-0.89-0.01-1.94 0-2.33 0.02s-1.09 0.07-1.55 0.1c-0.46 0.04-1.27 0.13-1.8 0.19-0.53 0.07-1.25 0.17-1.6 0.23s-1.03 0.18-1.49 0.28c-0.47 0.09-1.27 0.27-1.78 0.39-0.5 0.13-1.11 0.29-1.35 0.36s-0.77 0.23-1.18 0.35c-0.4 0.13-1.04 0.34-1.42 0.47-0.38 0.14-1.05 0.39-1.49 0.56-0.43 0.18-1.11 0.46-1.51 0.64s-1.19 0.55-1.75 0.83c-0.57 0.29-1.34 0.69-1.71 0.9s-0.91 0.52-1.2 0.69c-0.29 0.18-0.81 0.51-1.17 0.74s-0.93 0.61-1.27 0.85c-0.35 0.24-0.85 0.61-1.13 0.82-0.27 0.2-0.73 0.56-1.02 0.79s-0.7 0.57-0.92 0.75c-0.22 0.19-0.65 0.56-0.96 0.84-0.31 0.27-1.04 0.98-1.62 1.56-0.59 0.59-1.3 1.32-1.57 1.63-0.28 0.31-0.76 0.87-1.08 1.25-0.31 0.38-0.74 0.91-0.95 1.19-0.21 0.27-0.54 0.72-0.74 0.98-0.19 0.26-0.61 0.87-0.94 1.35-0.32 0.49-0.79 1.23-1.05 1.65-0.25 0.43-0.59 1.01-0.75 1.29-0.16 0.29-0.46 0.85-0.67 1.26-0.21 0.4-0.55 1.1-0.76 1.56s-0.51 1.12-0.65 1.48c-0.15 0.35-0.42 1.04-0.6 1.52s-0.43 1.2-0.56 1.59c-0.12 0.39-0.32 1.03-0.44 1.43-0.11 0.41-0.3 1.12-0.42 1.58-0.11 0.47-0.3 1.32-0.41 1.9s-0.26 1.37-0.31 1.76c-0.06 0.39-0.15 1.02-0.19 1.4-0.05 0.37-0.12 1.02-0.15 1.43-0.03 0.42-0.08 1.12-0.11 1.57-0.02 0.44-0.04 1.36-0.04 2.04s0.02 1.6 0.04 2.04c0.03 0.45 0.08 1.15 0.11 1.55s0.11 1.11 0.17 1.58 0.17 1.24 0.25 1.71c0.07 0.47 0.2 1.14 0.27 1.48 0.07 0.35 0.2 0.94 0.29 1.32s0.26 1.03 0.37 1.44 0.31 1.08 0.44 1.5c0.13 0.41 0.37 1.11 0.53 1.56 0.16 0.44 0.41 1.1 0.56 1.46 0.14 0.36 0.41 0.98 0.58 1.38 0.18 0.4 0.4 0.87 0.48 1.05 0.09 0.18 0.17 0.37 0.18 0.44 0.01 0.06 0.12 0.34 0.24 0.63s0.48 1.04 0.79 1.67c0.32 0.63 0.78 1.52 1.04 1.98 0.25 0.45 0.66 1.16 0.91 1.58 0.24 0.41 0.75 1.25 1.13 1.86 0.37 0.61 1 1.59 1.39 2.19s1.07 1.61 1.5 2.25c0.44 0.64 1.13 1.64 1.53 2.21s1.11 1.58 1.58 2.23 1.31 1.8 1.86 2.55c0.55 0.74 1.4 1.89 1.9 2.54 0.49 0.65 1.23 1.63 1.64 2.17 0.42 0.54 1.11 1.44 1.55 2 0.43 0.56 1.24 1.59 1.79 2.29s1.67 2.11 2.49 3.13c0.82 1.03 2.03 2.53 2.69 3.34s1.68 2.06 2.26 2.77c0.59 0.71 1.68 2.02 2.42 2.92 0.75 0.89 2.07 2.46 2.94 3.49 0.86 1.03 2.26 2.67 3.1 3.65s1.9 2.21 2.36 2.73 0.84 0.95 0.87 0.95c0.02 0 0.62-0.68 1.34-1.51s1.92-2.23 2.66-3.1c0.75-0.87 1.97-2.31 2.71-3.19 0.75-0.88 1.97-2.34 2.71-3.23 0.75-0.9 1.84-2.21 2.42-2.92 0.59-0.71 1.64-2 2.34-2.86s1.79-2.22 2.44-3.02c0.64-0.8 1.61-2.03 2.16-2.73 0.56-0.7 1.37-1.74 1.82-2.31 0.45-0.58 1.27-1.65 1.83-2.38 0.57-0.74 1.42-1.86 1.9-2.5 0.48-0.65 1.3-1.74 1.82-2.44 0.51-0.7 1.39-1.91 1.94-2.68s1.39-1.96 1.87-2.65c0.47-0.68 1.33-1.95 1.91-2.83 0.58-0.87 1.31-1.98 1.62-2.48 0.31-0.49 0.84-1.36 1.19-1.94 0.34-0.57 0.8-1.36 1.03-1.76 0.22-0.4 0.59-1.09 0.82-1.53 0.23-0.43 0.56-1.1 0.74-1.48s0.41-0.87 0.5-1.1 0.17-0.43 0.17-0.46 0.14-0.37 0.32-0.74c0.17-0.38 0.44-0.99 0.6-1.36s0.43-1.02 0.59-1.44c0.16-0.41 0.44-1.2 0.62-1.74s0.43-1.34 0.55-1.77c0.13-0.44 0.32-1.15 0.43-1.59 0.1-0.43 0.28-1.25 0.39-1.81 0.12-0.56 0.27-1.4 0.33-1.86 0.07-0.45 0.18-1.27 0.23-1.81 0.06-0.54 0.13-1.31 0.16-1.71 0.04-0.46 0.05-1.47 0.05-2.73 0-1.2-0.02-2.27-0.05-2.69-0.03-0.38-0.08-1-0.11-1.38-0.04-0.37-0.12-1.03-0.17-1.45-0.06-0.43-0.16-1.11-0.23-1.52-0.07-0.4-0.2-1.1-0.29-1.55s-0.24-1.12-0.34-1.49c-0.09-0.37-0.27-1.04-0.39-1.49-0.13-0.45-0.38-1.26-0.56-1.79-0.18-0.54-0.46-1.33-0.62-1.75s-0.43-1.07-0.6-1.46c-0.16-0.38-0.48-1.09-0.71-1.56-0.22-0.48-0.57-1.18-0.77-1.55s-0.54-0.98-0.75-1.36c-0.22-0.37-0.54-0.91-0.71-1.18-0.18-0.28-0.49-0.77-0.7-1.09s-0.59-0.87-0.85-1.23c-0.25-0.35-0.69-0.94-0.98-1.31-0.28-0.37-0.72-0.92-0.97-1.21-0.25-0.3-0.71-0.83-1.03-1.19s-1.03-1.09-1.57-1.63-1.23-1.21-1.54-1.48c-0.31-0.28-0.87-0.76-1.24-1.07s-0.98-0.8-1.36-1.08c-0.37-0.29-0.88-0.67-1.12-0.84s-0.75-0.52-1.12-0.77c-0.38-0.25-0.92-0.61-1.21-0.78-0.28-0.18-0.87-0.53-1.31-0.78s-1.31-0.72-1.94-1.03c-0.63-0.32-1.48-0.73-1.88-0.9-0.4-0.18-1.05-0.45-1.44-0.61-0.39-0.15-0.95-0.37-1.25-0.48s-0.82-0.29-1.17-0.4c-0.34-0.11-0.97-0.31-1.39-0.43-0.43-0.13-1.15-0.32-1.61-0.43-0.46-0.12-1.1-0.27-1.44-0.34-0.33-0.07-0.8-0.16-1.04-0.21-0.24-0.04-0.74-0.13-1.1-0.18-0.37-0.06-0.89-0.14-1.15-0.17-0.26-0.04-0.86-0.11-1.33-0.15-0.47-0.05-1.15-0.1-1.51-0.13-0.35-0.02-1.38-0.05-2.27-0.06zm236.81 8.51v124.48h31.88v-124.48h-31.88zm-237.37 0.27c0.49 0 1.29 0.02 1.77 0.04s1.26 0.08 1.73 0.13c0.47 0.04 1.18 0.13 1.59 0.19 0.4 0.05 0.97 0.15 1.27 0.2 0.29 0.06 0.76 0.15 1.04 0.21 0.27 0.06 0.72 0.17 1 0.23 0.27 0.07 0.82 0.22 1.21 0.33 0.39 0.12 1.06 0.33 1.5 0.48 0.44 0.14 1.06 0.37 1.39 0.5s0.87 0.35 1.19 0.49 0.91 0.41 1.3 0.59c0.39 0.19 1.02 0.52 1.4 0.73s0.94 0.52 1.23 0.69c0.3 0.18 0.88 0.56 1.31 0.84 0.42 0.28 1 0.67 1.27 0.87 0.28 0.21 0.81 0.62 1.19 0.92s0.93 0.76 1.23 1.03c0.3 0.26 0.9 0.82 1.33 1.24 0.43 0.43 1.03 1.04 1.32 1.36s0.75 0.85 1.02 1.17 0.71 0.87 0.98 1.23c0.27 0.35 0.66 0.89 0.86 1.18 0.21 0.3 0.56 0.83 0.78 1.17 0.21 0.35 0.57 0.94 0.8 1.33 0.22 0.39 0.6 1.11 0.85 1.61 0.25 0.49 0.56 1.14 0.69 1.44s0.33 0.75 0.43 1 0.31 0.79 0.45 1.19c0.15 0.4 0.38 1.09 0.52 1.54 0.14 0.44 0.34 1.13 0.44 1.52s0.26 1.07 0.35 1.51c0.09 0.43 0.21 1.07 0.27 1.41 0.06 0.35 0.14 0.92 0.19 1.27 0.04 0.36 0.11 0.99 0.15 1.4 0.03 0.42 0.08 1.25 0.1 1.86 0.03 0.71 0.03 1.51 0 2.24-0.02 0.62-0.07 1.45-0.1 1.83-0.04 0.39-0.1 0.94-0.13 1.22-0.04 0.29-0.11 0.82-0.16 1.17-0.06 0.36-0.17 0.99-0.26 1.4-0.08 0.41-0.22 1.05-0.31 1.42-0.09 0.36-0.26 0.98-0.37 1.37-0.12 0.39-0.32 1.05-0.47 1.46-0.14 0.42-0.39 1.1-0.56 1.53s-0.46 1.11-0.64 1.52c-0.19 0.41-0.52 1.08-0.73 1.5-0.21 0.41-0.57 1.06-0.79 1.44s-0.55 0.94-0.74 1.23c-0.18 0.3-0.48 0.74-0.65 1-0.18 0.25-0.53 0.74-0.79 1.08-0.25 0.35-0.64 0.85-0.86 1.12s-0.64 0.77-0.93 1.11c-0.3 0.33-0.93 1-1.41 1.49-0.48 0.48-1.12 1.09-1.42 1.35-0.3 0.27-0.78 0.68-1.06 0.92-0.29 0.23-0.86 0.68-1.27 0.98-0.41 0.31-1.05 0.76-1.42 1.01s-0.94 0.61-1.26 0.81c-0.32 0.19-0.83 0.49-1.14 0.66-0.31 0.18-0.9 0.49-1.32 0.7-0.41 0.2-1.07 0.51-1.48 0.69-0.4 0.18-0.98 0.43-1.29 0.55s-0.83 0.31-1.17 0.43c-0.33 0.11-0.91 0.31-1.29 0.42-0.38 0.12-1.08 0.32-1.56 0.44s-1.21 0.29-1.61 0.37-1.03 0.19-1.4 0.25c-0.36 0.06-0.89 0.13-1.16 0.17-0.28 0.03-0.81 0.09-1.19 0.12-0.38 0.04-1.22 0.09-1.87 0.12-0.9 0.03-1.45 0.03-2.35 0-0.65-0.03-1.49-0.08-1.87-0.12-0.38-0.03-0.98-0.1-1.33-0.14-0.36-0.05-0.93-0.13-1.28-0.19-0.34-0.06-0.9-0.16-1.24-0.23-0.35-0.07-0.92-0.2-1.28-0.29-0.35-0.09-0.94-0.24-1.29-0.35-0.36-0.1-0.93-0.28-1.28-0.4-0.36-0.11-0.92-0.31-1.26-0.44-0.33-0.13-0.95-0.38-1.36-0.55-0.41-0.18-1.21-0.55-1.77-0.83s-1.32-0.68-1.69-0.89-0.87-0.51-1.11-0.66-0.75-0.48-1.14-0.75c-0.39-0.26-0.97-0.68-1.3-0.92-0.32-0.24-0.79-0.6-1.04-0.81-0.25-0.2-0.72-0.6-1.05-0.89-0.33-0.28-0.91-0.83-1.3-1.21-0.39-0.37-0.96-0.96-1.28-1.31-0.31-0.34-0.82-0.93-1.13-1.3s-0.81-1-1.1-1.39c-0.3-0.4-0.76-1.05-1.03-1.46-0.28-0.41-0.67-1.03-0.87-1.37-0.21-0.35-0.53-0.89-0.7-1.21-0.18-0.32-0.49-0.92-0.69-1.34-0.2-0.41-0.51-1.08-0.69-1.5-0.18-0.41-0.44-1.06-0.58-1.44-0.14-0.37-0.37-1.01-0.5-1.4s-0.33-1.08-0.46-1.53c-0.12-0.45-0.3-1.15-0.39-1.56s-0.23-1.06-0.3-1.45c-0.07-0.38-0.17-1.04-0.23-1.45-0.05-0.42-0.13-1.07-0.16-1.45-0.04-0.37-0.09-1.12-0.11-1.64-0.03-0.57-0.04-1.45-0.03-2.15 0.02-0.65 0.05-1.46 0.07-1.79 0.03-0.34 0.08-0.95 0.13-1.36 0.04-0.41 0.13-1.06 0.19-1.44s0.17-1.02 0.25-1.42c0.08-0.41 0.23-1.09 0.33-1.51 0.11-0.42 0.25-0.96 0.32-1.2s0.2-0.68 0.29-0.98c0.09-0.29 0.27-0.81 0.39-1.14 0.12-0.34 0.32-0.85 0.44-1.15s0.33-0.81 0.47-1.13 0.42-0.91 0.61-1.31c0.2-0.4 0.52-1.01 0.71-1.35 0.19-0.35 0.51-0.89 0.7-1.21 0.2-0.32 0.54-0.87 0.77-1.21 0.22-0.34 0.6-0.88 0.84-1.2 0.23-0.32 0.62-0.84 0.87-1.15 0.25-0.32 0.68-0.83 0.94-1.13 0.27-0.31 0.88-0.97 1.36-1.46s1.14-1.13 1.46-1.42 0.84-0.74 1.15-1 0.89-0.72 1.29-1.02 1.09-0.79 1.54-1.09 1.09-0.71 1.43-0.91c0.33-0.19 0.85-0.49 1.14-0.65 0.3-0.17 0.92-0.49 1.38-0.71 0.47-0.23 1.17-0.56 1.57-0.73 0.4-0.16 1.05-0.43 1.45-0.58 0.4-0.14 1.02-0.36 1.38-0.48 0.35-0.11 0.95-0.3 1.33-0.4 0.37-0.11 0.99-0.27 1.37-0.36 0.38-0.08 0.98-0.21 1.34-0.28s0.82-0.15 1.04-0.19 0.6-0.09 0.84-0.13c0.24-0.03 0.83-0.1 1.31-0.15 0.48-0.04 1.19-0.1 1.56-0.12 0.38-0.02 1.1-0.03 1.59-0.04zm117.1 6.77v25.67h88.75v-25.67h-88.75zm256.77 6.21v23.65h-13.25v23.83h13.25v30.53c0 11.57 3.19 20.3 9.56 26 6.38 5.87 15.44 8.73 27.35 8.73 4.36 0 8.39-0.34 12.25-1.35 3.86-0.84 7.21-2.18 9.9-3.86l-7.89-22.31c-2.85 2.01-6.04 2.85-9.73 2.85-3.02 0-5.37-0.84-7.05-2.68-1.67-1.85-2.51-4.36-2.51-7.72v-30.19h20.8v-23.83h-20.8v-23.65h-31.88zm-373.71 0.4c-0.01 0-1.35 3.26-2.98 7.24-1.63 3.99-2.98 7.27-3 7.3-0.03 0.04-2.06 0.2-7.86 0.63-4.3 0.31-7.83 0.58-7.85 0.59-0.02 0.02 2.66 2.31 5.95 5.09s6 5.08 6.02 5.1c0.02 0.03-0.62 2.71-1.83 7.66-1.03 4.19-1.87 7.64-1.86 7.66 0 0.03 3.02-1.81 6.69-4.09 3.68-2.28 6.71-4.15 6.73-4.15 0.01 0 3.04 1.87 6.71 4.15 3.68 2.27 6.69 4.12 6.7 4.09s-0.83-3.47-1.86-7.66c-1.03-4.18-1.86-7.62-1.85-7.64 0.01-0.01 2.71-2.31 6.02-5.1 3.3-2.79 5.99-5.09 5.97-5.11-0.02-0.01-3.55-0.28-7.85-0.59-5.72-0.42-7.83-0.59-7.86-0.63-0.03-0.03-1.38-3.31-3-7.3-1.63-3.98-2.97-7.24-2.99-7.24zm519.93 18.39c-6.71 0-12.75 1.17-17.95 3.19-5.2 2.01-9.39 5.2-12.58 9.22v-10.9h-30.37v90.93h31.88v-41.78c0-7.55 1.85-13.25 5.7-16.94 3.86-3.69 9.23-5.54 16.11-5.54 1.84 0 4.19 0.17 7.21 0.51v-28.69zm88.03 0c-6.71 0-12.75 1.17-17.95 3.19-5.2 2.01-9.39 5.2-12.58 9.22v-10.9h-30.36v90.93h31.87v-41.78c0-7.55 1.85-13.25 5.7-16.94 3.86-3.69 9.23-5.54 16.11-5.54 1.84 0 4.19 0.17 7.21 0.51v-28.69zm-304.34 1.51v90.93h31.87v-90.93h-31.87zm-186.68 25v65.93h33.22v-40.27h55.53v-25.66h-88.75zm-145.87 13.9h-3.86l-3.88 0.01-0.33 0.08c-0.18 0.04-0.48 0.16-0.67 0.25-0.25 0.14-0.42 0.27-0.69 0.54l-0.36 0.35-14.2 22.94c-7.82 12.62-14.27 23.06-14.34 23.21s-0.16 0.41-0.19 0.58c-0.05 0.21-0.06 0.44-0.05 0.75 0.02 0.31 0.05 0.53 0.13 0.77 0.06 0.18 0.18 0.45 0.27 0.6 0.08 0.15 0.29 0.41 0.47 0.59 0.17 0.17 0.43 0.38 0.58 0.47 0.15 0.08 0.42 0.2 0.6 0.27l0.34 0.11h130.23l0.36-0.13c0.2-0.07 0.48-0.19 0.61-0.27s0.38-0.28 0.55-0.45c0.17-0.18 0.38-0.44 0.47-0.59s0.21-0.42 0.27-0.6c0.08-0.24 0.11-0.46 0.12-0.77 0.02-0.31 0-0.54-0.04-0.75-0.04-0.16-0.12-0.41-0.18-0.55s-6.51-10.57-14.32-23.18c-7.82-12.6-14.29-23.02-14.39-23.14-0.1-0.13-0.29-0.32-0.43-0.43s-0.38-0.27-0.54-0.35-0.44-0.18-0.63-0.23l-0.33-0.08h-7.69l-1.43 1.91c-0.78 1.05-1.78 2.37-2.21 2.94-0.43 0.56-0.79 1.04-0.79 1.05s2.28 0.03 5.06 0.03l5.05 0.01 4.23 6.81c2.32 3.75 4.22 6.83 4.22 6.85 0 0.03-4.48 0.04-10.75 0.05l-10.75 0.01-0.34 0.12c-0.2 0.07-0.47 0.2-0.61 0.29s-0.37 0.27-0.5 0.4c-0.14 0.13-0.33 0.37-0.44 0.53s-0.25 0.45-0.31 0.65c-0.09 0.26-0.13 0.46-0.14 0.81-0.02 0.38-0.01 0.52 0.07 0.81 0.04 0.19 0.14 0.46 0.2 0.6 0.07 0.14 0.21 0.37 0.32 0.52 0.11 0.14 0.33 0.37 0.47 0.49 0.15 0.12 0.4 0.28 0.57 0.36 0.16 0.08 0.41 0.18 0.55 0.22l0.25 0.08 12.57 0.01 12.57 0.02 5.61 9.05c3.08 4.98 5.88 9.48 6.2 10l0.59 0.96h-56.24l-0.02-3.72-0.01-3.73-0.09-0.25c-0.04-0.14-0.14-0.37-0.22-0.51-0.07-0.15-0.21-0.37-0.3-0.5-0.1-0.13-0.29-0.32-0.44-0.44-0.14-0.12-0.4-0.29-0.57-0.37-0.17-0.09-0.47-0.19-0.66-0.24-0.19-0.04-0.48-0.08-0.65-0.08s-0.44 0.03-0.62 0.06c-0.17 0.04-0.34 0.06-0.37 0.05-0.03-0.02-0.05-0.01-0.05 0.01 0.01 0.02-0.15 0.12-0.34 0.21-0.28 0.14-0.43 0.26-0.71 0.54-0.27 0.27-0.4 0.44-0.54 0.7-0.09 0.19-0.21 0.49-0.26 0.66l-0.08 0.33v7.28h-56.26l0.59-0.96c0.33-0.52 3.12-5.02 6.2-10l5.61-9.05 12.57-0.02 12.57-0.01 0.3-0.1c0.16-0.05 0.41-0.16 0.57-0.24 0.15-0.08 0.37-0.23 0.49-0.33s0.3-0.28 0.4-0.4 0.26-0.37 0.35-0.56c0.09-0.18 0.2-0.44 0.23-0.58s0.08-0.37 0.09-0.53c0.01-0.15 0-0.43-0.03-0.62-0.02-0.19-0.1-0.49-0.17-0.67-0.07-0.17-0.21-0.45-0.33-0.61-0.11-0.16-0.31-0.39-0.46-0.52-0.14-0.13-0.4-0.31-0.58-0.41-0.18-0.09-0.47-0.2-0.65-0.25l-0.32-0.08h-10.65c-8.92 0-10.65-0.01-10.64-0.06 0.01-0.03 1.91-3.11 4.22-6.86l4.21-6.8h5.06c2.78 0 5.06-0.01 5.06-0.02s-0.33-0.45-0.72-0.97c-0.4-0.52-1.23-1.62-1.85-2.45s-1.28-1.72-1.48-1.99l-0.35-0.49z" />
</g>
</svg>