<svg xmlns="http://www.w3.org/2000/svg" viewBox="79.5 -724.3 2554.9 736.3" fill="#F4C031"><g transform="scale(1,-1)"><path transform="translate(0.0,0)" d="M79.51485180854797 0V687.3060457706451H678.551676273346V541.8881661891937H270.5724070072174V398.222398519516H631.5964295864105V254.78277683258057H270.5724070072174V0Z"/><path transform="translate(716.0,0)" d="M63.59750509262085 0V724.3060457706451H237.47102284431458V0Z"/><path transform="translate(1017.0,0)" d="M63.59750509262085 599.0760207176208V724.3060457706451H237.47102284431458V599.0760207176208ZM63.59750509262085 0V527.3060457706451H237.47102284431458V0Z"/><path transform="translate(1318.0,0)" d="M286.5323951244354 -12Q228.1476469039917 -12 188.31901133060455 3.320112943649292Q148.4903757572174 18.640225887298584 128.3407175540924 52.380544543266296Q108.19105935096741 86.12086319923401 108.19105935096741 140.69929814338684V405.18603515625H22.799715518951416V527.3060457706451H114.38832497596741L149.37656164169312 682.9049091339111H282.06457710266113V527.3060457706451H406.045125246048V405.18603515625H282.06457710266113V177.62970447540283Q282.06457710266113 144.75441193580627 295.438347697258 127.43721127510071Q308.81211829185486 110.12001061439514 347.50717306137085 110.12001061439514H406.045125246048V5.56689453125Q392.4295537471771 0.8043057918548584 370.5915478467941 -3.3487170934677124Q348.75354194641113 -7.501739978790283 326.1890045404434 -9.750869989395142Q303.6244671344757 -12 286.5323951244354 -12Z"/><path transform="translate(1759.0,0)" d="M63.59750509262085 0V527.3060457706451H205.67669582366943L217.82876443862915 442.1800072193146H225.569593667984Q238.9841890335083 471.8589313030243 259.8648042678833 493.895880818367Q280.7454195022583 515.9328303337097 308.82526218891144 527.8911665678024Q336.9051048755646 539.8495028018951 370.0695044994354 539.8495028018951Q389.2032935619354 539.8495028018951 405.59058487415314 536.6764603853226Q421.97787618637085 533.50341796875 433.3811345100403 528.7391512393951V384.42544412612915H364.5224783420563Q331.26768469810486 384.42544412612915 307.18548488616943 374.5689368247986Q283.103285074234 364.712429523468 267.73281717300415 346.4319565296173Q252.3623492717743 328.1514835357666 244.91668605804443 303.2048660516739Q237.47102284431458 278.2582485675812 237.47102284431458 247.83545899391174V0Z"/><path transform="translate(2201.0,0)" d="M63.59750509262085 0V527.3060457706451H205.67669582366943L217.82876443862915 442.1800072193146H225.569593667984Q238.9841890335083 471.8589313030243 259.8648042678833 493.895880818367Q280.7454195022583 515.9328303337097 308.82526218891144 527.8911665678024Q336.9051048755646 539.8495028018951 370.0695044994354 539.8495028018951Q389.2032935619354 539.8495028018951 405.59058487415314 536.6764603853226Q421.97787618637085 533.50341796875 433.3811345100403 528.7391512393951V384.42544412612915H364.5224783420563Q331.26768469810486 384.42544412612915 307.18548488616943 374.5689368247986Q283.103285074234 364.712429523468 267.73281717300415 346.4319565296173Q252.3623492717743 328.1514835357666 244.91668605804443 303.2048660516739Q237.47102284431458 278.2582485675812 237.47102284431458 247.83545899391174V0Z"/></g></svg>
